<?xml version="1.0" encoding="UTF-8" standalone="no"?>
<!-- Created with Inkscape (http://www.inkscape.org/) -->

<svg
   xmlns:dc="http://purl.org/dc/elements/1.1/"
   xmlns:cc="http://creativecommons.org/ns#"
   xmlns:rdf="http://www.w3.org/1999/02/22-rdf-syntax-ns#"
   xmlns:svg="http://www.w3.org/2000/svg"
   xmlns="http://www.w3.org/2000/svg"
   xmlns:xlink="http://www.w3.org/1999/xlink"
   xmlns:sodipodi="http://sodipodi.sourceforge.net/DTD/sodipodi-0.dtd"
   xmlns:inkscape="http://www.inkscape.org/namespaces/inkscape"
   width="210mm"
   height="210mm"
   viewBox="0 0 210 210"
   version="1.1"
   id="svg8"
   inkscape:version="0.92.2 5c3e80d, 2017-08-06"
   sodipodi:docname="peace_simple.svg"
   enable-background="new">
  <defs
     id="defs2">
    <linearGradient
       inkscape:collect="always"
       id="linearGradient1058">
      <stop
         style="stop-color:#fd8e26;stop-opacity:1"
         offset="0"
         id="stop1054" />
      <stop
         id="stop1062"
         offset="0.4976536"
         style="stop-color:#fbbe0f;stop-opacity:1" />
      <stop
         style="stop-color:#f1ea04;stop-opacity:1"
         offset="1"
         id="stop1056" />
    </linearGradient>
    <linearGradient
       inkscape:collect="always"
       id="linearGradient1024">
      <stop
         style="stop-color:#ff0f00;stop-opacity:1"
         offset="0"
         id="stop1020" />
      <stop
         id="stop1032"
         offset="0.23911369"
         style="stop-color:#f65e77;stop-opacity:1" />
      <stop
         style="stop-color:#9b8ba7;stop-opacity:0.88095236"
         offset="0.55003005"
         id="stop1034" />
      <stop
         style="stop-color:#00baf9;stop-opacity:1"
         offset="1"
         id="stop1022" />
    </linearGradient>
    <radialGradient
       inkscape:collect="always"
       xlink:href="#linearGradient1024"
       id="radialGradient1026"
       cx="65.609863"
       cy="141.18291"
       fx="65.609863"
       fy="141.18291"
       r="19.786408"
       gradientTransform="matrix(0.88344994,0.00541752,-0.00545951,0.89029558,8.9391651,15.432618)"
       gradientUnits="userSpaceOnUse" />
    <linearGradient
       inkscape:collect="always"
       xlink:href="#linearGradient1058"
       id="linearGradient1060"
       x1="12.168307"
       y1="44.620232"
       x2="61.610119"
       y2="105.3006"
       gradientUnits="userSpaceOnUse"
       gradientTransform="scale(3.7795276)" />
    <linearGradient
       inkscape:collect="always"
       xlink:href="#linearGradient1058"
       id="linearGradient1164"
       x1="13.571405"
       y1="70.612801"
       x2="70.975952"
       y2="70.612801"
       gradientUnits="userSpaceOnUse"
       gradientTransform="scale(3.7795276)" />
    <linearGradient
       inkscape:collect="always"
       xlink:href="#linearGradient1058"
       id="linearGradient1174"
       x1="16.038504"
       y1="67.319893"
       x2="75.66172"
       y2="67.319893"
       gradientUnits="userSpaceOnUse"
       gradientTransform="scale(3.7795276)" />
    <linearGradient
       inkscape:collect="always"
       xlink:href="#linearGradient1058"
       id="linearGradient1195"
       x1="91.272545"
       y1="125.07511"
       x2="56.92841"
       y2="193.96384"
       gradientUnits="userSpaceOnUse" />
    <linearGradient
       inkscape:collect="always"
       xlink:href="#linearGradient1058"
       id="linearGradient1206"
       x1="94.939972"
       y1="212.38597"
       x2="71.093697"
       y2="283.10172"
       gradientUnits="userSpaceOnUse"
       gradientTransform="matrix(3.7795276,0,0,3.7795276,0,-328.8189)" />
    <linearGradient
       inkscape:collect="always"
       xlink:href="#linearGradient1058"
       id="linearGradient1218"
       x1="99.105576"
       y1="212"
       x2="80.69857"
       y2="282.04132"
       gradientUnits="userSpaceOnUse"
       gradientTransform="matrix(3.7795276,0,0,3.7795276,0,-328.8189)" />
    <linearGradient
       inkscape:collect="always"
       xlink:href="#linearGradient1058"
       id="linearGradient1231"
       x1="103.23891"
       y1="128.34087"
       x2="87.12986"
       y2="195.59401"
       gradientUnits="userSpaceOnUse"
       gradientTransform="scale(3.7795276)" />
    <linearGradient
       inkscape:collect="always"
       xlink:href="#linearGradient1058"
       id="linearGradient2200"
       gradientUnits="userSpaceOnUse"
       x1="16.038504"
       y1="67.319893"
       x2="75.66172"
       y2="67.319893"
       gradientTransform="matrix(-3.7795276,0,0,3.7795276,801.49609,0)" />
    <linearGradient
       inkscape:collect="always"
       xlink:href="#linearGradient1058"
       id="linearGradient2202"
       gradientUnits="userSpaceOnUse"
       x1="13.571405"
       y1="70.612801"
       x2="70.975952"
       y2="70.612801"
       gradientTransform="matrix(-3.7795276,0,0,3.7795276,801.49609,0)" />
    <linearGradient
       inkscape:collect="always"
       xlink:href="#linearGradient1058"
       id="linearGradient2204"
       gradientUnits="userSpaceOnUse"
       x1="12.168307"
       y1="44.620232"
       x2="61.610119"
       y2="105.3006"
       gradientTransform="matrix(-3.7795276,0,0,3.7795276,801.4961,0)" />
    <radialGradient
       inkscape:collect="always"
       xlink:href="#linearGradient1024"
       id="radialGradient2206"
       gradientUnits="userSpaceOnUse"
       gradientTransform="matrix(0.88344994,0.00541752,-0.00545951,0.89029558,-203.12334,15.432618)"
       cx="65.609863"
       cy="141.18291"
       fx="65.609863"
       fy="141.18291"
       r="19.786408" />
    <linearGradient
       inkscape:collect="always"
       xlink:href="#linearGradient1058"
       id="linearGradient2208"
       gradientUnits="userSpaceOnUse"
       x1="103.23891"
       y1="128.34087"
       x2="87.12986"
       y2="195.59401"
       gradientTransform="matrix(-3.7795276,0,0,3.7795276,801.4961,0)" />
    <linearGradient
       inkscape:collect="always"
       xlink:href="#linearGradient1058"
       id="linearGradient2210"
       gradientUnits="userSpaceOnUse"
       x1="99.105576"
       y1="212"
       x2="80.69857"
       y2="282.04132"
       gradientTransform="matrix(-3.7795276,0,0,3.7795276,801.4961,-328.8189)" />
    <linearGradient
       inkscape:collect="always"
       xlink:href="#linearGradient1058"
       id="linearGradient2212"
       gradientUnits="userSpaceOnUse"
       x1="94.939972"
       y1="212.38597"
       x2="71.093697"
       y2="283.10172"
       gradientTransform="matrix(-3.7795276,0,0,3.7795276,801.4961,-328.8189)" />
    <linearGradient
       inkscape:collect="always"
       xlink:href="#linearGradient1058"
       id="linearGradient2214"
       gradientUnits="userSpaceOnUse"
       x1="91.272545"
       y1="125.07511"
       x2="56.92841"
       y2="193.96384"
       gradientTransform="matrix(-1,0,0,1,212.06251,0)" />
  </defs>
  <sodipodi:namedview
     id="base"
     pagecolor="#ffffff"
     bordercolor="#666666"
     borderopacity="1.0"
     inkscape:pageopacity="0.0"
     inkscape:pageshadow="2"
     inkscape:zoom="0.7"
     inkscape:cx="400.26012"
     inkscape:cy="345.49082"
     inkscape:document-units="mm"
     inkscape:current-layer="layer2"
     showgrid="false"
     inkscape:window-width="1405"
     inkscape:window-height="855"
     inkscape:window-x="35"
     inkscape:window-y="1"
     inkscape:window-maximized="1" />
  <metadata
     id="metadata5">
    <rdf:RDF>
      <cc:Work
         rdf:about="">
        <dc:format>image/svg+xml</dc:format>
        <dc:type
           rdf:resource="http://purl.org/dc/dcmitype/StillImage" />
        <dc:title />
      </cc:Work>
    </rdf:RDF>
  </metadata>
  <g
     inkscape:groupmode="layer"
     id="layer2"
     inkscape:label="simple"
     style="display:inline">
    <path
       style="display:inline;opacity:1;fill:url(#linearGradient2200);fill-opacity:1;fill-rule:evenodd;stroke:#000000;stroke-width:2.64566922;stroke-linecap:round;stroke-linejoin:round;stroke-miterlimit:4;stroke-dasharray:none;stroke-dashoffset:0;stroke-opacity:1"
       d="M 738.875 139.84961 C 737.30661 139.79429 733.05066 143.23002 726.49609 149.77148 C 712.51298 163.7266 708.8151 168.04495 700.42383 176.91602 C 692.0326 185.78708 685.77787 192.68523 676.13867 202.98633 C 666.49948 213.28742 653.81835 226.73688 642.56836 238.70117 C 631.31837 250.66547 620.94704 262.19438 608.63867 274.77148 C 596.33026 287.34858 580.88143 302.66455 568.63867 314.05859 C 556.39591 325.45264 544.06855 336.76418 535.42383 343.34375 C 526.77914 349.92332 516.85352 355.48633 516.85352 355.48633 L 534.5625 367.41602 C 534.5625 367.41602 562.15346 346.5724 571.43359 338.62695 C 580.71373 330.68151 582.44444 328.65169 590.78125 320.48633 C 599.11806 312.32096 612.16776 298.74155 621.18359 289.38281 C 630.19943 280.02407 637.1746 272.92668 644.92188 264.38086 C 652.66917 255.83504 659.19453 247.80163 667.65039 238.11719 C 674.25619 230.55161 682.39304 221.32039 689.62109 213.15234 L 698.81836 201.55859 C 698.81836 201.55859 712.15144 184.77228 716.85352 177.98633 C 721.55559 171.20038 722.55934 172.12506 733.28125 154.05859 C 738.97727 144.46078 740.65251 139.91231 738.875 139.84961 z "
       transform="scale(0.26458333)"
       id="path2112" />
    <path
       style="display:inline;opacity:1;fill:url(#linearGradient2202);fill-opacity:1;fill-rule:evenodd;stroke:#000000;stroke-width:2.64566922;stroke-linecap:round;stroke-linejoin:round;stroke-miterlimit:4;stroke-dasharray:none;stroke-dashoffset:0;stroke-opacity:1"
       d="M 748.23828 152.92188 C 746.34633 152.96823 740.54406 158.38119 734.53125 164.05859 C 729.74663 168.97793 722.26133 176.84268 715.78125 183.87891 C 709.30117 190.91514 703.71218 197.26314 695.68359 206.29688 C 687.65501 215.3306 676.10625 228.43275 667.65039 238.11719 C 659.19453 247.80163 652.66918 255.83504 644.92188 264.38086 C 637.1746 272.92668 630.19943 280.02407 621.18359 289.38281 C 612.16776 298.74155 599.11806 312.32096 590.78125 320.48633 C 582.44444 328.65169 580.71373 330.68151 571.43359 338.62695 C 562.15346 346.5724 534.5625 367.41602 534.5625 367.41602 L 551.49609 380.84375 C 559.69759 376.79768 575.60565 362.8295 588.63867 351.55859 C 601.67169 340.28769 606.27075 336.60527 628.5957 312.73438 C 646.73615 293.33774 674.20426 262.0736 692.98242 239.60547 C 697.76079 233.13757 706.17609 221.74087 710.60352 215.66602 C 716.48692 207.59347 720.1751 202.73469 723.99609 197.09375 C 727.81708 191.45281 730.33159 187.27158 733.63867 181.91602 C 736.94576 176.56045 741.2651 169.52782 743.81836 164.95117 C 748.81692 156.09646 749.7098 152.88582 748.23828 152.92188 z "
       transform="scale(0.26458333)"
       id="path2114" />
    <path
       style="display:inline;opacity:1;fill:url(#linearGradient2204);fill-opacity:1;fill-rule:evenodd;stroke:#000000;stroke-width:2.64566922;stroke-linecap:round;stroke-linejoin:round;stroke-miterlimit:4;stroke-dasharray:none;stroke-opacity:1"
       d="M 754.27734 168.48047 C 752.20194 168.89412 746.0482 175.17011 735.06836 188.70117 C 709.97154 219.62932 721.38249 204.39312 704.49609 225.58594 C 687.60966 246.77876 650.92065 288.86347 628.5957 312.73438 C 606.27075 336.60528 601.67169 340.28769 588.63867 351.55859 C 575.60565 362.8295 559.69759 376.79768 551.49609 380.84375 C 551.44393 381.72879 551.50464 382.57282 551.64258 383.38477 C 555.51181 387.2074 559.32154 391.30336 563.05273 395.71289 C 566.14112 397.25326 568.63867 397.98633 568.63867 397.98633 C 568.63867 397.98633 568.38606 400.51255 590.94727 381.55859 C 613.50855 362.60463 649.08312 320.78225 669.35352 294.41602 C 689.62392 268.04979 727.22615 221.21766 743.63867 192.98633 C 752.87072 177.10621 756.94572 167.94863 754.27734 168.48047 z "
       transform="scale(0.26458333)"
       id="path2118" />
    <path
       style="display:inline;opacity:1;fill:url(#linearGradient1174);fill-opacity:1;fill-rule:evenodd;stroke:#000000;stroke-width:2.64566922;stroke-linecap:round;stroke-linejoin:round;stroke-miterlimit:4;stroke-dasharray:none;stroke-dashoffset:0;stroke-opacity:1"
       d="M 62.621094 139.84961 C 60.843587 139.91231 62.518824 144.46078 68.214844 154.05859 C 78.936762 172.12506 79.940525 171.20038 84.642578 177.98633 C 89.344635 184.77228 102.67773 201.55859 102.67773 201.55859 L 111.85742 213.13086 C 119.08913 221.30352 127.23404 230.54488 133.8457 238.11719 C 142.30156 247.80163 148.82692 255.83504 156.57422 264.38086 C 164.32152 272.92668 171.29666 280.02407 180.3125 289.38281 C 189.32834 298.74155 202.37803 312.32096 210.71484 320.48633 C 219.05165 328.65169 220.78236 330.68151 230.0625 338.62695 C 239.34264 346.5724 266.93359 367.41602 266.93359 367.41602 L 284.64258 355.48633 C 284.64258 355.48633 274.71696 349.92332 266.07227 343.34375 C 257.42757 336.76418 245.10019 325.45264 232.85742 314.05859 C 220.61465 302.66455 205.16582 287.34858 192.85742 274.77148 C 180.54902 262.19438 170.17772 250.66547 158.92773 238.70117 C 147.67774 226.73688 134.99662 213.28742 125.35742 202.98633 C 115.71823 192.68523 109.46351 185.78708 101.07227 176.91602 C 92.681019 168.04495 88.983099 163.7266 75 149.77148 C 68.445422 143.23002 64.189482 139.79429 62.621094 139.84961 z "
       transform="scale(0.26458333)"
       id="path1644" />
    <path
       style="display:inline;opacity:1;fill:url(#linearGradient1164);fill-opacity:1;fill-rule:evenodd;stroke:#000000;stroke-width:2.64566922;stroke-linecap:round;stroke-linejoin:round;stroke-miterlimit:4;stroke-dasharray:none;stroke-dashoffset:0;stroke-opacity:1"
       d="M 53.257812 152.92188 C 51.786295 152.88582 52.679179 156.09646 57.677734 164.95117 C 60.231009 169.52782 64.55032 176.56045 67.857422 181.91602 C 71.164524 187.27158 73.679 191.45281 77.5 197.09375 C 81.321 202.73469 85.009207 207.59347 90.892578 215.66602 C 95.320005 221.74087 103.73531 233.13757 108.51367 239.60547 C 127.29182 262.0736 154.75994 293.33774 172.90039 312.73438 C 195.22535 336.60527 199.82441 340.28769 212.85742 351.55859 C 225.89044 362.8295 241.79849 376.79768 250 380.84375 L 266.93359 367.41602 C 266.93359 367.41602 239.34264 346.5724 230.0625 338.62695 C 220.78236 330.68151 219.05165 328.65169 210.71484 320.48633 C 202.37803 312.32096 189.32834 298.74155 180.3125 289.38281 C 171.29666 280.02407 164.32152 272.92668 156.57422 264.38086 C 148.82692 255.83504 142.30156 247.80163 133.8457 238.11719 C 125.38985 228.43275 113.84304 215.3306 105.81445 206.29688 C 97.785874 197.26314 92.194912 190.91514 85.714844 183.87891 C 79.234776 176.84268 71.749431 168.97793 66.964844 164.05859 C 60.952022 158.38119 55.149765 152.96823 53.257812 152.92188 z "
       transform="scale(0.26458333)"
       id="path1646" />
    <path
       style="display:inline;opacity:1;fill:#38ba96;fill-opacity:1;fill-rule:evenodd;stroke:#000000;stroke-width:3.40157437;stroke-linecap:round;stroke-linejoin:round;stroke-miterlimit:4;stroke-dasharray:none;stroke-opacity:1"
       d="M 81.341797 86.464844 C 71.131105 86.916237 85.672497 107.87492 97.335938 128.63672 C 115.54227 161.04537 236.60083 298.95897 322.78516 337.91406 C 324.2707 338.44658 325.7076 338.93987 327.10156 339.39844 C 353.37184 332.3366 378.45172 331.39832 398.50586 330.92773 C 399.25436 330.91033 400.00121 330.91927 400.74805 330.94727 C 401.49488 330.91977 402.24174 330.91033 402.99023 330.92773 C 423.0409 331.39824 448.11556 332.33605 474.38086 339.39453 C 475.7842 338.93319 477.2147 338.45041 478.71094 337.91406 C 564.89524 298.95897 685.95383 161.04537 704.16016 128.63672 C 715.82363 107.87492 730.36496 86.916237 720.1543 86.464844 C 719.7963 86.449014 719.40832 86.458641 718.98828 86.494141 C 712.68776 87.026455 699.27346 93.431704 674.72461 108.7207 C 610.96881 148.42792 449.43886 267.20686 410.05273 296.28125 C 404.42614 300.43473 400.74805 302.33789 400.74805 302.33789 C 400.74805 302.33789 199.63527 154.10038 126.77148 108.7207 C 100.58602 92.412437 87.069743 86.211627 81.341797 86.464844 z "
       transform="scale(0.26458333)"
       id="path1648" />
    <path
       style="display:inline;opacity:1;fill:url(#linearGradient1060);fill-opacity:1;fill-rule:evenodd;stroke:#000000;stroke-width:2.64566922;stroke-linecap:round;stroke-linejoin:round;stroke-miterlimit:4;stroke-dasharray:none;stroke-opacity:1"
       d="M 47.21875 168.48047 C 44.550373 167.94863 48.62538 177.10621 57.857422 192.98633 C 74.269941 221.21766 111.87217 268.04979 132.14258 294.41602 C 152.41298 320.78225 187.98755 362.60463 210.54883 381.55859 C 233.11012 400.51255 232.85742 397.98633 232.85742 397.98633 C 232.85742 397.98633 235.35497 397.25326 238.44336 395.71289 C 242.17455 391.30336 245.98429 387.2074 249.85352 383.38477 C 249.99146 382.57282 250.05216 381.72879 250 380.84375 C 241.79849 376.79768 225.89044 362.8295 212.85742 351.55859 C 199.82441 340.28769 195.22535 336.60528 172.90039 312.73438 C 150.57544 288.86347 113.88641 246.77876 97 225.58594 C 80.113589 204.39312 91.524527 219.62932 66.427734 188.70117 C 55.447888 175.17011 49.294155 168.89412 47.21875 168.48047 z "
       transform="scale(0.26458333)"
       id="path1650" />
    <path
       style="display:inline;opacity:1;fill:#bdccd3;fill-opacity:1;fill-rule:evenodd;stroke:#000000;stroke-width:6.04724407;stroke-linecap:round;stroke-linejoin:round;stroke-miterlimit:4;stroke-dasharray:none;stroke-opacity:1"
       d="M 398.50586 330.92773 C 353.48451 331.98419 283.15257 335.30803 230.82031 405.29688 C 230.82031 405.29688 201.86091 437.54796 183.3418 499.74609 C 177.4105 525.34057 176.08167 542.18902 183.08984 557.30469 A 70.64847 70.648477 0 0 1 181.26953 550.95312 A 70.648468 70.648475 0 0 1 181.03125 549.89844 A 70.64847 70.648477 0 0 1 180.04688 544.45703 A 70.648468 70.648475 0 0 1 179.78516 542.29883 A 70.64847 70.648477 0 0 1 179.38867 537.31445 A 70.648468 70.648475 0 0 1 179.29688 534.73828 A 70.64847 70.648477 0 0 1 179.65039 527.68555 A 70.648468 70.648475 0 0 1 179.65039 527.68359 A 70.64847 70.648477 0 0 1 180.70508 520.70312 A 70.648468 70.648475 0 0 1 180.70508 520.70117 A 70.64847 70.648477 0 0 1 184.87305 507.22656 A 70.648468 70.648475 0 0 1 184.87305 507.22461 A 70.64847 70.648477 0 0 1 191.63672 494.84766 A 70.648468 70.648475 0 0 1 191.63672 494.8457 A 70.64847 70.648477 0 0 1 200.72461 484.05859 A 70.64847 70.648477 0 0 1 206.0293 479.39648 A 70.64847 70.648477 0 0 1 237.9375 465.11719 A 70.64847 70.648477 0 0 1 249.94531 464.08984 A 70.64847 70.648477 0 0 1 263.98047 465.49805 A 70.64847 70.648477 0 0 1 277.45703 469.66602 A 70.64847 70.648477 0 0 1 283.81641 472.73828 A 70.64847 70.648477 0 0 1 295.45898 480.70312 A 70.64847 70.648477 0 0 1 300.625 485.51758 A 70.64847 70.648477 0 0 1 312.9082 502.69141 A 70.648468 70.648475 0 0 1 312.9082 502.69336 A 70.64847 70.648477 0 0 1 315.79297 509.13672 A 70.648468 70.648475 0 0 1 315.79297 509.13867 A 70.64847 70.648477 0 0 1 319.56641 522.72852 A 70.648468 70.648475 0 0 1 319.56641 522.73047 A 70.64847 70.648477 0 0 1 320.41602 529.74023 A 70.648468 70.648475 0 0 1 320.59375 534.73828 A 70.64847 70.648477 0 0 1 319.18555 548.77344 A 70.64847 70.648477 0 0 1 317.4375 555.61719 A 70.64847 70.648477 0 0 1 311.94531 568.60742 A 70.648468 70.648475 0 0 1 311.94531 568.60938 A 70.64847 70.648477 0 0 1 303.98047 580.25 A 70.648468 70.648475 0 0 1 303.98047 580.25195 A 70.64847 70.648477 0 0 1 299.16602 585.41797 A 70.648468 70.648475 0 0 1 281.99219 597.69922 A 70.648468 70.648475 0 0 1 281.99023 597.70117 A 70.648468 70.648475 0 0 1 254.94336 605.20898 A 70.64847 70.648477 0 0 1 249.94531 605.38672 A 70.64847 70.648477 0 0 1 229.9668 602.45898 C 232.03841 603.88486 234.15623 605.33199 236.375 606.82227 L 400.74805 606.82227 L 565.12109 606.82227 C 567.33986 605.33199 569.45768 603.88486 571.5293 602.45898 A 70.648469 70.648476 0 0 1 564.82031 604.09375 A 70.648467 70.648474 0 0 1 563.44531 604.30078 A 70.648469 70.648476 0 0 1 557.98633 605.06445 A 70.648467 70.648474 0 0 1 551.55078 605.38672 A 70.648469 70.648476 0 0 1 545.5332 605.08594 A 70.648467 70.648474 0 0 1 542.00195 604.65625 A 70.648469 70.648476 0 0 1 538.55273 604.13477 A 70.648467 70.648474 0 0 1 535.05273 603.34961 A 70.648469 70.648476 0 0 1 531.68555 602.49023 A 70.648467 70.648474 0 0 1 528.2793 601.35742 A 70.648469 70.648476 0 0 1 525.0332 600.17383 A 70.648467 70.648474 0 0 1 521.73633 598.69922 A 70.648469 70.648476 0 0 1 518.625 597.19531 A 70.648467 70.648474 0 0 1 515.51758 595.41211 A 70.648469 70.648476 0 0 1 512.54688 593.5918 A 70.648467 70.648474 0 0 1 509.64844 591.51758 A 70.648469 70.648476 0 0 1 506.87109 589.4082 A 70.648467 70.648474 0 0 1 504.1875 587.05078 A 70.648469 70.648476 0 0 1 501.62891 584.66406 A 70.648467 70.648474 0 0 1 499.20703 582.06641 A 70.648469 70.648476 0 0 1 496.90234 579.44336 A 70.648467 70.648474 0 0 1 494.72852 576.58594 A 70.648469 70.648476 0 0 1 492.71094 573.76172 A 70.648467 70.648474 0 0 1 490.8418 570.71289 A 70.648469 70.648476 0 0 1 489.10547 567.68555 A 70.648467 70.648474 0 0 1 487.56836 564.50391 A 70.648469 70.648476 0 0 1 486.12305 561.27539 A 70.648467 70.648474 0 0 1 484.91797 557.97461 A 70.648469 70.648476 0 0 1 483.80078 554.61133 A 70.648467 70.648474 0 0 1 482.92773 551.19141 A 70.648469 70.648476 0 0 1 482.1582 547.76172 A 70.648467 70.648474 0 0 1 481.62695 544.24609 A 70.648469 70.648476 0 0 1 481.20508 540.75977 A 70.648467 70.648474 0 0 1 480.90234 534.73828 A 70.648469 70.648476 0 0 1 481.20508 528.71484 A 70.648467 70.648474 0 0 1 481.625 525.23633 A 70.648469 70.648476 0 0 1 482.1582 521.70898 A 70.648467 70.648474 0 0 1 482.92188 518.30664 A 70.648469 70.648476 0 0 1 483.80664 514.84766 A 70.648467 70.648474 0 0 1 484.9043 511.53906 A 70.648469 70.648476 0 0 1 486.12695 508.1875 A 70.648467 70.648474 0 0 1 487.56055 504.98828 A 70.648469 70.648476 0 0 1 489.10547 501.79102 A 70.648467 70.648474 0 0 1 490.8457 498.75586 A 70.648469 70.648476 0 0 1 492.70898 495.71484 A 70.648467 70.648474 0 0 1 494.73828 492.88086 A 70.648469 70.648476 0 0 1 496.89453 490.04297 A 70.648467 70.648474 0 0 1 499.20703 487.4082 A 70.648469 70.648476 0 0 1 501.63867 484.80078 A 70.648467 70.648474 0 0 1 504.1875 482.42578 A 70.648469 70.648476 0 0 1 506.85938 480.07812 A 70.648467 70.648474 0 0 1 509.66406 477.94531 A 70.648469 70.648476 0 0 1 512.54492 475.88477 A 70.648467 70.648474 0 0 1 515.54102 474.04883 A 70.648469 70.648476 0 0 1 518.61328 472.28711 A 70.648467 70.648474 0 0 1 521.77539 470.75977 A 70.648469 70.648476 0 0 1 525.01367 469.31055 A 70.648467 70.648474 0 0 1 528.30078 468.10938 A 70.648469 70.648476 0 0 1 531.68359 466.98633 A 70.648467 70.648474 0 0 1 535.0918 466.11719 A 70.648469 70.648476 0 0 1 538.53125 465.34375 A 70.648467 70.648474 0 0 1 542.00195 464.81836 A 70.648469 70.648476 0 0 1 545.55273 464.38867 A 70.648467 70.648474 0 0 1 551.55078 464.08984 A 70.648469 70.648476 0 0 1 557.5957 464.39258 A 70.648467 70.648474 0 0 1 561.03516 464.81055 A 70.648469 70.648476 0 0 1 564.57422 465.3457 A 70.648467 70.648474 0 0 1 567.98633 466.11133 A 70.648469 70.648476 0 0 1 571.44141 466.99414 A 70.648467 70.648474 0 0 1 574.76367 468.09766 A 70.648469 70.648476 0 0 1 578.08984 469.31055 A 70.648467 70.648474 0 0 1 581.32617 470.75977 A 70.648469 70.648476 0 0 1 584.48828 472.28711 A 70.648467 70.648474 0 0 1 587.54492 474.03906 A 70.648469 70.648476 0 0 1 590.57422 475.89648 A 70.648467 70.648474 0 0 1 593.4082 477.92578 A 70.648469 70.648476 0 0 1 596.24609 480.08203 A 70.648467 70.648474 0 0 1 598.87695 482.39258 A 70.648469 70.648476 0 0 1 601.48633 484.82422 A 70.648467 70.648474 0 0 1 603.86328 487.375 A 70.648469 70.648476 0 0 1 606.21094 490.04688 A 70.648467 70.648474 0 0 1 608.34961 492.85938 A 70.648469 70.648476 0 0 1 610.39844 495.72656 A 70.648467 70.648474 0 0 1 612.24414 498.73438 A 70.648469 70.648476 0 0 1 614.00195 501.80273 A 70.648467 70.648474 0 0 1 615.52148 504.94531 A 70.648469 70.648476 0 0 1 616.98047 508.20508 A 70.648467 70.648474 0 0 1 618.18945 511.51758 A 70.648469 70.648476 0 0 1 619.29688 514.84961 A 70.648467 70.648474 0 0 1 620.17578 518.29297 A 70.648469 70.648476 0 0 1 620.94531 521.71875 A 70.648467 70.648474 0 0 1 621.47461 525.2207 A 70.648469 70.648476 0 0 1 621.89844 528.7168 A 70.648467 70.648474 0 0 1 622.19922 534.73828 A 70.648469 70.648476 0 0 1 621.85547 541.10547 A 70.648467 70.648474 0 0 1 621.60938 543.14258 A 70.648469 70.648476 0 0 1 620.77734 548.50391 A 70.648467 70.648474 0 0 1 620.59961 549.29492 A 70.648469 70.648476 0 0 1 618.40625 557.30469 C 625.41441 542.18902 624.08559 525.34057 618.1543 499.74609 C 599.63518 437.54796 570.67578 405.29687 570.67578 405.29688 C 518.34354 335.30803 448.01159 331.98419 402.99023 330.92773 C 402.24174 330.91033 401.49488 330.91977 400.74805 330.94727 C 400.00121 330.91927 399.25436 330.91033 398.50586 330.92773 z "
       transform="scale(0.26458333)"
       id="path1652" />
    <path
       style="display:inline;opacity:1;fill:#f79786;fill-opacity:1;fill-rule:evenodd;stroke:#000600;stroke-width:3.40157461;stroke-linecap:round;stroke-linejoin:round;stroke-miterlimit:4;stroke-dasharray:none;stroke-opacity:1"
       d="M 209.75977 90.748047 C 205.3313 90.73439 208.62225 100.57976 217.33984 117.75195 C 237.15856 156.51555 254.30429 175.94267 272.13867 206.94141 C 296.25264 225.39228 366.86176 277.81451 366.89062 277.83594 C 366.83094 277.67251 365.61635 274.35092 364.0625 270.98242 C 362.47017 267.53048 344.74295 237.66455 337.91797 228.70703 C 337.90812 228.67814 337.89471 228.63476 337.88477 228.60547 C 320.84093 206.37098 297.92644 176.03586 279.91016 156.92773 C 261.89192 137.81753 266.87614 139.87531 235.18359 109.86328 C 221.3181 96.73302 213.20413 90.758669 209.75977 90.748047 z "
       transform="scale(0.26458333)"
       id="path1654" />
    <path
       style="display:inline;opacity:1;fill:#f79786;fill-opacity:1;fill-rule:evenodd;stroke:#000000;stroke-width:3.40157461;stroke-linecap:round;stroke-linejoin:round;stroke-miterlimit:4;stroke-dasharray:none;stroke-opacity:1"
       d="M 301.56445 47.40625 C 299.26475 47.570217 297.92582 51.511664 298.69922 62.039062 C 300.60296 87.952645 302.9983 91.581506 303.9375 99.587891 C 304.87669 107.59428 321.02734 169.09375 321.02734 169.09375 C 321.02734 169.09375 333.76592 216.53055 337.91797 228.70703 C 344.74295 237.66455 362.47017 267.53048 364.0625 270.98242 C 365.65484 274.43436 366.93164 277.94141 366.93164 277.94141 L 383.67578 290.82422 C 383.32785 290.03347 375.71071 272.45111 373.69531 243.31836 C 372.9207 232.12129 372.98244 219.26984 373.55469 205.18359 L 373.43945 204.2207 L 342.0625 122.73242 C 342.0625 122.73242 320.73344 74.175241 314.21094 62.142578 C 310.33821 54.998299 304.92556 47.166606 301.56445 47.40625 z "
       transform="scale(0.26458333)"
       id="path1656" />
    <path
       style="display:inline;opacity:1;fill:#f79786;fill-opacity:1;fill-rule:evenodd;stroke:#000600;stroke-width:3.40157461;stroke-linecap:round;stroke-linejoin:round;stroke-miterlimit:4;stroke-dasharray:none;stroke-opacity:1"
       d="M 591.73633 90.748047 C 588.29196 90.758669 580.17801 96.73302 566.3125 109.86328 C 534.61995 139.87531 539.60419 137.81753 521.58594 156.92773 C 503.56967 176.03586 480.65518 206.37098 463.61133 228.60547 C 463.60138 228.63476 463.58798 228.67814 463.57812 228.70703 C 456.75314 237.66455 439.02595 267.53048 437.43359 270.98242 C 435.87974 274.35092 434.66516 277.67251 434.60547 277.83594 C 434.63433 277.81451 505.24348 225.39228 529.35742 206.94141 C 547.1918 175.94267 564.33754 156.51555 584.15625 117.75195 C 592.87385 100.57976 596.1648 90.73439 591.73633 90.748047 z "
       transform="scale(0.26458333)"
       id="path2122" />
    <path
       style="display:inline;opacity:1;fill:#f79786;fill-opacity:1;fill-rule:evenodd;stroke:#000000;stroke-width:3.40157461;stroke-linecap:round;stroke-linejoin:round;stroke-miterlimit:4;stroke-dasharray:none;stroke-opacity:1"
       d="M 499.93164 47.40625 C 496.57054 47.166606 491.15788 54.998299 487.28516 62.142578 C 480.76264 74.175241 459.43359 122.73242 459.43359 122.73242 L 428.05664 204.2207 L 427.94141 205.18359 C 428.51365 219.26984 428.5754 232.12129 427.80078 243.31836 C 425.78537 272.45111 418.16825 290.03347 417.82031 290.82422 L 434.56445 277.94141 C 434.56445 277.94141 435.84124 274.43436 437.43359 270.98242 C 439.02595 267.53048 456.75313 237.66455 463.57812 228.70703 C 467.73016 216.53055 480.46875 169.09375 480.46875 169.09375 C 480.46875 169.09375 496.61942 107.59428 497.55859 99.587891 C 498.49781 91.581506 500.89313 87.952645 502.79688 62.039062 C 503.57027 51.511664 502.23134 47.570217 499.93164 47.40625 z "
       transform="scale(0.26458333)"
       id="path2124" />
    <path
       style="display:inline;opacity:1;fill:#f79786;fill-opacity:1;fill-rule:evenodd;stroke:#000d00;stroke-width:3.40157437;stroke-linecap:round;stroke-linejoin:round;stroke-miterlimit:4;stroke-dasharray:none;stroke-opacity:1"
       d="m 400.41992,34.351562 c -0.13946,0.01689 -0.21679,0.04297 -0.2168,0.04297 0,0 -5.53313,1.793333 -8.2539,12.191407 -3.39542,11.8562 -9.1069,34.61543 -12.7832,80.005861 -3.67641,45.39043 -7.53305,86.91538 -5.47071,116.72656 2.06233,29.81117 10.04297,47.65625 10.04297,47.65625 l 17.00982,11.36328 v 0 l 17.00971,-11.36328 c 0,0 7.98063,-17.84508 10.04297,-47.65625 2.06234,-29.81118 -1.79428,-71.33613 -5.4707,-116.72656 -3.67631,-45.390431 -9.38779,-68.149661 -12.7832,-80.005861 -2.72077,-10.398074 -8.25391,-12.191407 -8.25391,-12.191407 0,0 -0.0773,-0.02607 -0.2168,-0.04297 -0.0782,-0.0095 -0.21474,0.0024 -0.32812,0.0039 -0.11339,-0.0015 -0.24989,-0.01343 -0.32813,-0.0039 z"
       id="path1658"
       inkscape:connector-curvature="0"
       transform="scale(0.26458333)"
       sodipodi:nodetypes="ccccsccccscccccc" />
    <path
       style="display:inline;opacity:1;fill:#000000;fill-opacity:1;fill-rule:evenodd;stroke:none;stroke-width:0.37641129;stroke-linecap:round;stroke-linejoin:round;stroke-miterlimit:4;stroke-dasharray:none;stroke-opacity:1"
       d="m 370.73242,331.61719 c -2.02597,0.0221 -5.90582,1.7939 -5.43426,3.76435 l -33.50519,0.12627 c -0.0981,3.7e-4 -0.17774,0.0808 -0.17774,0.17969 v 136.25 c 0,0.099 0.0796,0.17773 0.17774,0.17773 h 68.93164 68.93164 c 0.0979,0 0.17773,-0.0787 0.17773,-0.17773 v -136.25 c 0,-0.0989 -0.0787,-0.17969 -0.17773,-0.17969 l -34.57794,-1.38896 -4.31655,-2.50166 c -20.81863,0.7335 -39.4807,0.12656 -60.0293,0 z m 19.69141,7.26172 h 20.64844 v 46.63281 l 55.93554,-43.46484 v 22.08593 l -55.93554,44.05664 v 59.23243 h -20.64844 v -59.23243 l -55.93555,-44.05664 v -22.08593 l 55.93555,43.46484 z"
       transform="scale(0.26458333)"
       id="path1668"
       inkscape:connector-curvature="0"
       sodipodi:nodetypes="ccsssscssssccccccccccccccccc" />
    <ellipse
       ry="18.69241"
       rx="18.692408"
       cy="141.48259"
       cx="66.131409"
       id="ellipse1660"
       style="display:inline;fill:url(#radialGradient1026);fill-opacity:1;fill-rule:evenodd;stroke:#000000;stroke-width:2.18799996;stroke-linecap:butt;stroke-linejoin:miter;stroke-miterlimit:4;stroke-dasharray:none;stroke-opacity:1" />
    <circle
       style="display:inline;fill:#ffffff;fill-opacity:1;fill-rule:evenodd;stroke:#000000;stroke-width:1.05799997;stroke-linecap:butt;stroke-linejoin:miter;stroke-miterlimit:4;stroke-dasharray:none;stroke-opacity:1"
       id="circle1662"
       cx="65.845825"
       cy="141.60184"
       r="3.620826" />
    <path
       style="display:inline;opacity:1;fill:#c38961;fill-opacity:1;fill-rule:evenodd;stroke:#000000;stroke-width:6.31181097;stroke-linecap:round;stroke-linejoin:round;stroke-miterlimit:4;stroke-dasharray:none;stroke-dashoffset:0;stroke-opacity:1"
       d="m 98.40625,606.68945 v 132.56446 h 302.3418 302.34179 V 606.68945 H 400.74805 Z"
       id="path1664"
       inkscape:connector-curvature="0"
       transform="scale(0.26458333)" />
    <path
       style="display:inline;opacity:1;fill:url(#linearGradient1231);fill-opacity:1;fill-rule:evenodd;stroke:#000000;stroke-width:3.40157461;stroke-linecap:round;stroke-linejoin:round;stroke-miterlimit:4;stroke-dasharray:none;stroke-dashoffset:0;stroke-opacity:1"
       d="m 383.85742,472.44141 c 6.31148,139.22327 -11.67135,237.48701 -54.54492,266.81054 h 41.41406 c 31.90883,-44.50624 30.23556,-181.96368 30.02053,-266.81054 z"
       transform="scale(0.26458333)"
       id="path1674"
       inkscape:connector-curvature="0"
       sodipodi:nodetypes="ccccc" />
    <path
       style="display:inline;opacity:1;fill:url(#linearGradient1218);fill-opacity:1;fill-rule:evenodd;stroke:#000800;stroke-width:3.40157461;stroke-linecap:round;stroke-linejoin:round;stroke-miterlimit:4;stroke-dasharray:none;stroke-dashoffset:0;stroke-opacity:1"
       d="M 366.68555 472.44141 C 368.20725 608.78184 351.30721 706.87647 283.85352 739.25391 L 329.31055 739.25391 C 372.18573 709.93226 390.16901 611.66711 383.85742 472.44141 L 366.68555 472.44141 z M 283.85352 739.25391 L 257.5918 739.25195 L 257.58984 739.25391 L 283.85352 739.25391 z "
       transform="scale(0.26458333)"
       id="path1676" />
    <path
       style="display:inline;opacity:1;fill:url(#linearGradient1206);fill-opacity:1;fill-rule:evenodd;stroke:#000000;stroke-width:3.40157461;stroke-linecap:round;stroke-linejoin:round;stroke-miterlimit:4;stroke-dasharray:none;stroke-dashoffset:0;stroke-opacity:1"
       d="M 350.52344 472.44141 C 354.14123 587.58584 318.98414 716.34122 231.83203 739.25195 L 283.85352 739.25391 C 351.30722 706.87647 368.20725 608.78185 366.68555 472.44141 L 350.52344 472.44141 z "
       transform="scale(0.26458333)"
       id="path1678" />
    <path
       style="display:inline;opacity:1;fill:url(#linearGradient1195);fill-opacity:1;fill-rule:evenodd;stroke:#000100;stroke-width:0.89999998;stroke-linecap:round;stroke-linejoin:round;stroke-miterlimit:4;stroke-dasharray:none;stroke-dashoffset:0;stroke-opacity:1"
       d="M 42.094951,195.594 C 69.623712,190.51587 90.210169,167.98788 88.198943,125 h 4.543581 c 0.957213,30.46551 -8.344821,64.53255 -31.404168,70.594 z"
       id="path1680"
       inkscape:connector-curvature="0"
       sodipodi:nodetypes="ccccc" />
    <ellipse
       style="display:inline;fill:url(#radialGradient2206);fill-opacity:1;fill-rule:evenodd;stroke:#000000;stroke-width:2.18799996;stroke-linecap:butt;stroke-linejoin:miter;stroke-miterlimit:4;stroke-dasharray:none;stroke-opacity:1"
       id="ellipse2128"
       cx="-145.93111"
       cy="141.48259"
       rx="18.692408"
       ry="18.69241"
       transform="scale(-1,1)" />
    <circle
       r="3.620826"
       cy="141.60184"
       cx="-146.21669"
       id="circle2130"
       style="display:inline;fill:#ffffff;fill-opacity:1;fill-rule:evenodd;stroke:#000000;stroke-width:1.05799997;stroke-linecap:butt;stroke-linejoin:miter;stroke-miterlimit:4;stroke-dasharray:none;stroke-opacity:1"
       transform="scale(-1,1)" />
    <path
       style="display:inline;opacity:1;fill:url(#linearGradient2208);fill-opacity:1;fill-rule:evenodd;stroke:#000000;stroke-width:3.40157461;stroke-linecap:round;stroke-linejoin:round;stroke-miterlimit:4;stroke-dasharray:none;stroke-dashoffset:0;stroke-opacity:1"
       d="m 400.74709,472.44141 c -1.73027,84.34179 -1.88641,222.3043 30.02244,266.81054 h 41.41406 C 429.31001,709.92842 411.3272,611.66468 417.63867,472.44141 Z"
       transform="scale(0.26458333)"
       id="path2142"
       inkscape:connector-curvature="0"
       sodipodi:nodetypes="ccccc" />
    <path
       style="display:inline;opacity:1;fill:url(#linearGradient2210);fill-opacity:1;fill-rule:evenodd;stroke:#000800;stroke-width:3.40157461;stroke-linecap:round;stroke-linejoin:round;stroke-miterlimit:4;stroke-dasharray:none;stroke-dashoffset:0;stroke-opacity:1"
       d="M 417.63867 472.44141 C 411.32709 611.66711 429.31036 709.93226 472.18555 739.25391 L 517.64258 739.25391 C 450.1889 706.87647 433.28883 608.78184 434.81055 472.44141 L 417.63867 472.44141 z M 517.64258 739.25391 L 543.90625 739.25391 L 543.9043 739.25195 L 517.64258 739.25391 z "
       transform="scale(0.26458333)"
       id="path2144" />
    <path
       style="display:inline;opacity:1;fill:url(#linearGradient2212);fill-opacity:1;fill-rule:evenodd;stroke:#000000;stroke-width:3.40157461;stroke-linecap:round;stroke-linejoin:round;stroke-miterlimit:4;stroke-dasharray:none;stroke-dashoffset:0;stroke-opacity:1"
       d="M 434.81055 472.44141 C 433.28883 608.78185 450.1889 706.87647 517.64258 739.25391 L 569.66406 739.25195 C 482.51199 716.34122 447.35484 587.58584 450.97266 472.44141 L 434.81055 472.44141 z "
       transform="scale(0.26458333)"
       id="path2146" />
    <path
       sodipodi:nodetypes="ccccc"
       inkscape:connector-curvature="0"
       id="path2148"
       d="M 169.96756,195.594 C 142.4388,190.51587 121.85234,167.98788 123.86357,125 h -4.54358 c -0.95722,30.46551 8.34482,64.53255 31.40416,70.594 z"
       style="display:inline;opacity:1;fill:url(#linearGradient2214);fill-opacity:1;fill-rule:evenodd;stroke:#000100;stroke-width:0.89999998;stroke-linecap:round;stroke-linejoin:round;stroke-miterlimit:4;stroke-dasharray:none;stroke-dashoffset:0;stroke-opacity:1" />
    <path
       style="display:inline;opacity:1;fill:#f6ffff;fill-opacity:1;fill-rule:evenodd;stroke:none;stroke-width:1.66999996;stroke-linecap:round;stroke-linejoin:round;stroke-miterlimit:4;stroke-dasharray:none;stroke-dashoffset:0;stroke-opacity:1"
       d="m 108.76287,123.67204 h -5.46323 V 108.00012 L 88.500023,96.343469 V 90.499903 L 103.29964,101.99997 V 89.661708 h 5.46323 v 12.338262 l 14.79962,-11.500067 v 5.843566 l -14.79962,11.656651 z"
       id="path943"
       inkscape:connector-curvature="0" />
    <circle
       r="3.620826"
       cy="141.60184"
       cx="65.845825"
       id="circle955"
       style="display:inline;fill:#ffffff;fill-opacity:1;fill-rule:evenodd;stroke:#000000;stroke-width:1.05799997;stroke-linecap:butt;stroke-linejoin:miter;stroke-miterlimit:4;stroke-dasharray:none;stroke-opacity:1" />
    <path
       sodipodi:nodetypes="ccsssscssssccccccccccccccccc"
       inkscape:connector-curvature="0"
       id="path964"
       transform="scale(0.26458333)"
       d="m 370.73242,331.61719 c -2.02597,0.0221 -5.90582,1.7939 -5.43426,3.76435 l -33.50519,0.12627 c -0.0981,3.7e-4 -0.17774,0.0808 -0.17774,0.17969 v 136.25 c 0,0.099 0.0796,0.17773 0.17774,0.17773 h 68.93164 68.93164 c 0.0979,0 0.17773,-0.0787 0.17773,-0.17773 v -136.25 c 0,-0.0989 -0.0787,-0.17969 -0.17773,-0.17969 l -34.57794,-1.38896 -4.31655,-2.50166 c -20.81863,0.7335 -39.4807,0.12656 -60.0293,0 z m 19.69141,7.26172 h 20.64844 v 46.63281 l 55.93554,-43.46484 v 22.08593 l -55.93554,44.05664 v 59.23243 h -20.64844 v -59.23243 l -55.93555,-44.05664 v -22.08593 l 55.93555,43.46484 z"
       style="display:inline;opacity:1;fill:#000000;fill-opacity:1;fill-rule:evenodd;stroke:none;stroke-width:0.37641129;stroke-linecap:round;stroke-linejoin:round;stroke-miterlimit:4;stroke-dasharray:none;stroke-opacity:1" />
  </g>
</svg>
